<svg xmlns="http://www.w3.org/2000/svg" xmlns:xlink="http://www.w3.org/1999/xlink" width="58.297" height="52.402" viewBox="0 0 58.297 52.402">
  <defs>
    <clipPath id="clip-path">
      <rect width="58.298" height="52.403" fill="none"/>
    </clipPath>
    <linearGradient id="linear-gradient" x1="1" y1="1" x2="-0.09" y2="-0.245" gradientUnits="objectBoundingBox">
      <stop offset="0" stop-color="#ff9494"/>
      <stop offset="0.962" stop-color="red"/>
      <stop offset="1" stop-color="#8d89fc"/>
    </linearGradient>
  </defs>
  <g id="Component_11_1" data-name="Component 11 – 1" clip-path="url(#clip-path)">
    <path id="Intersection_13" data-name="Intersection 13" d="M0,26.2C0,11.755,13.077,0,29.149,0S58.3,11.755,58.3,26.2,45.221,52.4,29.149,52.4,0,40.648,0,26.2Zm2.429,0c0,13.244,11.986,24.018,26.72,24.018S55.868,39.444,55.868,26.2,43.882,2.183,29.149,2.183,2.429,12.957,2.429,26.2Z" fill="url(#linear-gradient)"/>
    <path id="Path_1902" data-name="Path 1902" d="M12.973,1.909A11.159,11.159,0,0,1,16.128,3.2a7.719,7.719,0,0,1,2.137,1.921,7.512,7.512,0,0,1,1.2,2.43,10,10,0,0,1,.384,2.783,9.572,9.572,0,0,1-.367,2.626,10.328,10.328,0,0,1-1.052,2.45,9.123,9.123,0,0,1-1.686,2.078A8.789,8.789,0,0,1,14.475,19q-2.4,1.1-7.579,1.1H-7.426v-.98H-6.29a5.437,5.437,0,0,0,1.369-.157A1.85,1.85,0,0,0-3.9,18.255a3.992,3.992,0,0,0,.634-1.607,14.893,14.893,0,0,0,.217-2.862V-9.224a14.353,14.353,0,0,0-.234-2.94,3.8,3.8,0,0,0-.668-1.588,1.855,1.855,0,0,0-1.035-.666,5.845,5.845,0,0,0-1.3-.137H-7.426v-.98H5.662q6.31,0,9.565,2.509a8.353,8.353,0,0,1,3.255,7.017,8.438,8.438,0,0,1-1.4,4.8A8.268,8.268,0,0,1,12.973,1.909ZM1.255,17.51a18.985,18.985,0,0,0,5.108.706,10.236,10.236,0,0,0,3.606-.588,7.456,7.456,0,0,0,2.6-1.588,6.6,6.6,0,0,0,1.569-2.352,7.771,7.771,0,0,0,.534-2.881,8.841,8.841,0,0,0-.568-3.175,6.769,6.769,0,0,0-1.753-2.587A6.521,6.521,0,0,0,9.7,3.678,12.1,12.1,0,0,0,5.662,3.32c-.935,0-1.875-.026-2.521,0a15,15,0,0,0-1.886,0Zm0-17.571c.294.472.931.493,1.632.558H5.461c2.96,0,5.086-.235,6.377-1.49a6.932,6.932,0,0,0,1.936-5.213,7.862,7.862,0,0,0-.551-2.92A6.7,6.7,0,0,0,11.6-11.536,7.866,7.866,0,0,0,8.95-13.163a10.279,10.279,0,0,0-3.689-.608,12.48,12.48,0,0,0-4.006.588Z" transform="translate(22.5 23.33)" fill="#fff" stroke="red" stroke-width="1"/>
  </g>
</svg>
